<mxfile host="app.diagrams.net" modified="2023-02-16T18:35:21.643Z" agent="5.0 (Macintosh; Intel Mac OS X 10_15_7) AppleWebKit/605.1.15 (KHTML, like Gecko) Version/16.1 Safari/605.1.15" etag="fTBpxVeZ4YezOM43vBfW" version="20.8.18" type="github">
  <diagram name="Page-1" id="Dn73y9k9ntJR02xOjBfo">
    <mxGraphModel dx="954" dy="550" grid="1" gridSize="10" guides="1" tooltips="1" connect="1" arrows="1" fold="1" page="1" pageScale="1" pageWidth="827" pageHeight="1169" math="0" shadow="0">
      <root>
        <mxCell id="0" />
        <mxCell id="1" parent="0" />
        <mxCell id="YcY5wflO2p1K-p8oIMmG-2" value="Utilisateur" style="shape=umlActor;verticalLabelPosition=bottom;verticalAlign=top;html=1;" vertex="1" parent="1">
          <mxGeometry x="428" y="10" width="30" height="70" as="geometry" />
        </mxCell>
        <mxCell id="YcY5wflO2p1K-p8oIMmG-3" value="" style="whiteSpace=wrap;html=1;aspect=fixed;fillColor=#f5f5f5;strokeColor=#666666;fontColor=#333333;" vertex="1" parent="1">
          <mxGeometry x="150" y="960" width="660" height="660" as="geometry" />
        </mxCell>
        <mxCell id="YcY5wflO2p1K-p8oIMmG-34" style="edgeStyle=orthogonalEdgeStyle;rounded=0;orthogonalLoop=1;jettySize=auto;html=1;exitX=1;exitY=0.5;exitDx=0;exitDy=0;entryX=0;entryY=0.5;entryDx=0;entryDy=0;dashed=1;" edge="1" parent="1" source="YcY5wflO2p1K-p8oIMmG-4" target="YcY5wflO2p1K-p8oIMmG-10">
          <mxGeometry relative="1" as="geometry" />
        </mxCell>
        <mxCell id="YcY5wflO2p1K-p8oIMmG-4" value="Login" style="ellipse;whiteSpace=wrap;html=1;" vertex="1" parent="1">
          <mxGeometry x="390" y="180" width="110" height="60" as="geometry" />
        </mxCell>
        <mxCell id="YcY5wflO2p1K-p8oIMmG-30" style="edgeStyle=orthogonalEdgeStyle;rounded=0;orthogonalLoop=1;jettySize=auto;html=1;exitX=0.5;exitY=0;exitDx=0;exitDy=0;entryX=0;entryY=0.5;entryDx=0;entryDy=0;dashed=1;" edge="1" parent="1" source="YcY5wflO2p1K-p8oIMmG-5" target="YcY5wflO2p1K-p8oIMmG-4">
          <mxGeometry relative="1" as="geometry" />
        </mxCell>
        <mxCell id="YcY5wflO2p1K-p8oIMmG-73" style="edgeStyle=none;rounded=0;orthogonalLoop=1;jettySize=auto;html=1;exitX=1;exitY=1;exitDx=0;exitDy=0;entryX=0;entryY=0;entryDx=0;entryDy=0;dashed=1;" edge="1" parent="1" source="YcY5wflO2p1K-p8oIMmG-5" target="YcY5wflO2p1K-p8oIMmG-12">
          <mxGeometry relative="1" as="geometry" />
        </mxCell>
        <mxCell id="YcY5wflO2p1K-p8oIMmG-5" value="Commande manuel&amp;nbsp;" style="ellipse;whiteSpace=wrap;html=1;" vertex="1" parent="1">
          <mxGeometry x="210" y="300" width="100" height="60" as="geometry" />
        </mxCell>
        <mxCell id="YcY5wflO2p1K-p8oIMmG-33" style="edgeStyle=orthogonalEdgeStyle;rounded=0;orthogonalLoop=1;jettySize=auto;html=1;exitX=0;exitY=0;exitDx=0;exitDy=0;entryX=1;entryY=1;entryDx=0;entryDy=0;dashed=1;" edge="1" parent="1" source="YcY5wflO2p1K-p8oIMmG-6" target="YcY5wflO2p1K-p8oIMmG-4">
          <mxGeometry relative="1" as="geometry">
            <Array as="points">
              <mxPoint x="636" y="250" />
              <mxPoint x="484" y="250" />
            </Array>
          </mxGeometry>
        </mxCell>
        <mxCell id="YcY5wflO2p1K-p8oIMmG-77" style="edgeStyle=none;rounded=0;orthogonalLoop=1;jettySize=auto;html=1;exitX=1;exitY=1;exitDx=0;exitDy=0;entryX=1;entryY=0.5;entryDx=0;entryDy=0;dashed=1;" edge="1" parent="1" source="YcY5wflO2p1K-p8oIMmG-6" target="YcY5wflO2p1K-p8oIMmG-16">
          <mxGeometry relative="1" as="geometry">
            <Array as="points">
              <mxPoint x="764" y="650" />
            </Array>
          </mxGeometry>
        </mxCell>
        <mxCell id="YcY5wflO2p1K-p8oIMmG-86" style="edgeStyle=none;rounded=0;orthogonalLoop=1;jettySize=auto;html=1;exitX=1;exitY=0.5;exitDx=0;exitDy=0;entryX=0.5;entryY=1;entryDx=0;entryDy=0;dashed=1;" edge="1" parent="1" source="YcY5wflO2p1K-p8oIMmG-6" target="YcY5wflO2p1K-p8oIMmG-17">
          <mxGeometry relative="1" as="geometry">
            <Array as="points">
              <mxPoint x="800" y="330" />
              <mxPoint x="800" y="840" />
              <mxPoint x="270" y="840" />
            </Array>
          </mxGeometry>
        </mxCell>
        <mxCell id="YcY5wflO2p1K-p8oIMmG-6" value="Mapping" style="ellipse;whiteSpace=wrap;html=1;" vertex="1" parent="1">
          <mxGeometry x="670" y="300" width="110" height="60" as="geometry" />
        </mxCell>
        <mxCell id="YcY5wflO2p1K-p8oIMmG-32" style="edgeStyle=orthogonalEdgeStyle;rounded=0;orthogonalLoop=1;jettySize=auto;html=1;exitX=0.5;exitY=0;exitDx=0;exitDy=0;entryX=0.445;entryY=0.983;entryDx=0;entryDy=0;entryPerimeter=0;dashed=1;" edge="1" parent="1" source="YcY5wflO2p1K-p8oIMmG-8" target="YcY5wflO2p1K-p8oIMmG-4">
          <mxGeometry relative="1" as="geometry" />
        </mxCell>
        <mxCell id="YcY5wflO2p1K-p8oIMmG-8" value="Recherche d&#39;objet" style="ellipse;whiteSpace=wrap;html=1;" vertex="1" parent="1">
          <mxGeometry x="510" y="300" width="110" height="60" as="geometry" />
        </mxCell>
        <mxCell id="YcY5wflO2p1K-p8oIMmG-31" style="edgeStyle=orthogonalEdgeStyle;rounded=0;orthogonalLoop=1;jettySize=auto;html=1;exitX=0.5;exitY=0;exitDx=0;exitDy=0;dashed=1;" edge="1" parent="1" source="YcY5wflO2p1K-p8oIMmG-9">
          <mxGeometry relative="1" as="geometry">
            <mxPoint x="414" y="230" as="targetPoint" />
          </mxGeometry>
        </mxCell>
        <mxCell id="YcY5wflO2p1K-p8oIMmG-72" style="edgeStyle=none;rounded=0;orthogonalLoop=1;jettySize=auto;html=1;exitX=0.5;exitY=1;exitDx=0;exitDy=0;entryX=0.5;entryY=0;entryDx=0;entryDy=0;dashed=1;" edge="1" parent="1" source="YcY5wflO2p1K-p8oIMmG-9" target="YcY5wflO2p1K-p8oIMmG-14">
          <mxGeometry relative="1" as="geometry" />
        </mxCell>
        <mxCell id="YcY5wflO2p1K-p8oIMmG-74" style="edgeStyle=none;rounded=0;orthogonalLoop=1;jettySize=auto;html=1;exitX=0.5;exitY=1;exitDx=0;exitDy=0;entryX=1;entryY=0;entryDx=0;entryDy=0;dashed=1;" edge="1" parent="1" source="YcY5wflO2p1K-p8oIMmG-9" target="YcY5wflO2p1K-p8oIMmG-11">
          <mxGeometry relative="1" as="geometry" />
        </mxCell>
        <mxCell id="YcY5wflO2p1K-p8oIMmG-9" value="Recherche d&#39;objet" style="ellipse;whiteSpace=wrap;html=1;" vertex="1" parent="1">
          <mxGeometry x="359" y="300" width="110" height="60" as="geometry" />
        </mxCell>
        <mxCell id="YcY5wflO2p1K-p8oIMmG-10" value="Verification &amp;nbsp;de login" style="ellipse;whiteSpace=wrap;html=1;" vertex="1" parent="1">
          <mxGeometry x="600" y="180" width="110" height="60" as="geometry" />
        </mxCell>
        <mxCell id="YcY5wflO2p1K-p8oIMmG-71" style="edgeStyle=none;rounded=0;orthogonalLoop=1;jettySize=auto;html=1;exitX=0.5;exitY=0;exitDx=0;exitDy=0;entryX=0.5;entryY=1;entryDx=0;entryDy=0;dashed=1;" edge="1" parent="1" source="YcY5wflO2p1K-p8oIMmG-11" target="YcY5wflO2p1K-p8oIMmG-5">
          <mxGeometry relative="1" as="geometry" />
        </mxCell>
        <mxCell id="YcY5wflO2p1K-p8oIMmG-78" style="edgeStyle=none;rounded=0;orthogonalLoop=1;jettySize=auto;html=1;exitX=0.5;exitY=1;exitDx=0;exitDy=0;entryX=0.5;entryY=0;entryDx=0;entryDy=0;dashed=1;" edge="1" parent="1" source="YcY5wflO2p1K-p8oIMmG-11" target="YcY5wflO2p1K-p8oIMmG-17">
          <mxGeometry relative="1" as="geometry" />
        </mxCell>
        <mxCell id="YcY5wflO2p1K-p8oIMmG-79" style="edgeStyle=none;rounded=0;orthogonalLoop=1;jettySize=auto;html=1;exitX=0.5;exitY=1;exitDx=0;exitDy=0;dashed=1;" edge="1" parent="1" source="YcY5wflO2p1K-p8oIMmG-11" target="YcY5wflO2p1K-p8oIMmG-15">
          <mxGeometry relative="1" as="geometry" />
        </mxCell>
        <mxCell id="YcY5wflO2p1K-p8oIMmG-11" value="Reconnaissance d&#39;objet" style="ellipse;whiteSpace=wrap;html=1;" vertex="1" parent="1">
          <mxGeometry x="200" y="510" width="100" height="60" as="geometry" />
        </mxCell>
        <mxCell id="YcY5wflO2p1K-p8oIMmG-82" style="edgeStyle=none;rounded=0;orthogonalLoop=1;jettySize=auto;html=1;exitX=0.5;exitY=1;exitDx=0;exitDy=0;entryX=0.5;entryY=0;entryDx=0;entryDy=0;dashed=1;" edge="1" parent="1" source="YcY5wflO2p1K-p8oIMmG-12" target="YcY5wflO2p1K-p8oIMmG-19">
          <mxGeometry relative="1" as="geometry" />
        </mxCell>
        <mxCell id="YcY5wflO2p1K-p8oIMmG-84" style="edgeStyle=none;rounded=0;orthogonalLoop=1;jettySize=auto;html=1;exitX=1;exitY=1;exitDx=0;exitDy=0;entryX=0.5;entryY=0;entryDx=0;entryDy=0;dashed=1;" edge="1" parent="1" source="YcY5wflO2p1K-p8oIMmG-12" target="YcY5wflO2p1K-p8oIMmG-83">
          <mxGeometry relative="1" as="geometry" />
        </mxCell>
        <mxCell id="YcY5wflO2p1K-p8oIMmG-12" value="Odometrie" style="ellipse;whiteSpace=wrap;html=1;" vertex="1" parent="1">
          <mxGeometry x="620" y="510" width="110" height="60" as="geometry" />
        </mxCell>
        <mxCell id="YcY5wflO2p1K-p8oIMmG-14" value="Detection d&#39;obstacle" style="ellipse;whiteSpace=wrap;html=1;" vertex="1" parent="1">
          <mxGeometry x="415" y="510" width="110" height="60" as="geometry" />
        </mxCell>
        <mxCell id="YcY5wflO2p1K-p8oIMmG-15" value="Algorithme de Machine Learning" style="ellipse;whiteSpace=wrap;html=1;" vertex="1" parent="1">
          <mxGeometry x="338" y="620" width="120" height="60" as="geometry" />
        </mxCell>
        <mxCell id="YcY5wflO2p1K-p8oIMmG-16" value="Algorithme de &amp;nbsp;SLAM" style="ellipse;whiteSpace=wrap;html=1;" vertex="1" parent="1">
          <mxGeometry x="492" y="620" width="110" height="60" as="geometry" />
        </mxCell>
        <mxCell id="YcY5wflO2p1K-p8oIMmG-17" value="LIDAR" style="ellipse;whiteSpace=wrap;html=1;" vertex="1" parent="1">
          <mxGeometry x="210" y="720" width="120" height="60" as="geometry" />
        </mxCell>
        <mxCell id="YcY5wflO2p1K-p8oIMmG-18" value="CamÃ©ra de profondeur" style="ellipse;whiteSpace=wrap;html=1;" vertex="1" parent="1">
          <mxGeometry x="375" y="720" width="110" height="60" as="geometry" />
        </mxCell>
        <mxCell id="YcY5wflO2p1K-p8oIMmG-19" value="Moteur Ã  encodeur" style="ellipse;whiteSpace=wrap;html=1;" vertex="1" parent="1">
          <mxGeometry x="520" y="720" width="110" height="60" as="geometry" />
        </mxCell>
        <mxCell id="YcY5wflO2p1K-p8oIMmG-38" value="" style="endArrow=none;html=1;rounded=0;entryX=0.5;entryY=0.5;entryDx=0;entryDy=0;entryPerimeter=0;exitX=0.5;exitY=0;exitDx=0;exitDy=0;" edge="1" parent="1" source="YcY5wflO2p1K-p8oIMmG-4" target="YcY5wflO2p1K-p8oIMmG-2">
          <mxGeometry width="50" height="50" relative="1" as="geometry">
            <mxPoint x="390" y="270" as="sourcePoint" />
            <mxPoint x="440" y="220" as="targetPoint" />
          </mxGeometry>
        </mxCell>
        <mxCell id="YcY5wflO2p1K-p8oIMmG-40" value="" style="endArrow=none;html=1;rounded=0;entryX=0;entryY=1;entryDx=0;entryDy=0;entryPerimeter=0;exitX=0.28;exitY=0;exitDx=0;exitDy=0;exitPerimeter=0;" edge="1" parent="1" source="YcY5wflO2p1K-p8oIMmG-5" target="YcY5wflO2p1K-p8oIMmG-2">
          <mxGeometry width="50" height="50" relative="1" as="geometry">
            <mxPoint x="390" y="270" as="sourcePoint" />
            <mxPoint x="440" y="220" as="targetPoint" />
            <Array as="points">
              <mxPoint x="240" y="80" />
            </Array>
          </mxGeometry>
        </mxCell>
        <mxCell id="YcY5wflO2p1K-p8oIMmG-57" value="" style="endArrow=none;html=1;rounded=0;entryX=1;entryY=1;entryDx=0;entryDy=0;entryPerimeter=0;exitX=0.5;exitY=0;exitDx=0;exitDy=0;" edge="1" parent="1" source="YcY5wflO2p1K-p8oIMmG-6" target="YcY5wflO2p1K-p8oIMmG-2">
          <mxGeometry width="50" height="50" relative="1" as="geometry">
            <mxPoint x="390" y="270" as="sourcePoint" />
            <mxPoint x="440" y="220" as="targetPoint" />
            <Array as="points">
              <mxPoint x="725" y="80" />
            </Array>
          </mxGeometry>
        </mxCell>
        <mxCell id="YcY5wflO2p1K-p8oIMmG-58" value="" style="endArrow=none;html=1;rounded=0;exitX=0;exitY=0;exitDx=0;exitDy=0;entryX=0;entryY=1;entryDx=0;entryDy=0;entryPerimeter=0;" edge="1" parent="1" source="YcY5wflO2p1K-p8oIMmG-9" target="YcY5wflO2p1K-p8oIMmG-2">
          <mxGeometry width="50" height="50" relative="1" as="geometry">
            <mxPoint x="390" y="270" as="sourcePoint" />
            <mxPoint x="440" y="220" as="targetPoint" />
            <Array as="points">
              <mxPoint x="370" y="120" />
              <mxPoint x="420" y="120" />
            </Array>
          </mxGeometry>
        </mxCell>
        <mxCell id="YcY5wflO2p1K-p8oIMmG-59" value="" style="endArrow=none;html=1;rounded=0;entryX=1;entryY=1;entryDx=0;entryDy=0;entryPerimeter=0;exitX=0.655;exitY=0.017;exitDx=0;exitDy=0;exitPerimeter=0;" edge="1" parent="1" source="YcY5wflO2p1K-p8oIMmG-8" target="YcY5wflO2p1K-p8oIMmG-2">
          <mxGeometry width="50" height="50" relative="1" as="geometry">
            <mxPoint x="390" y="270" as="sourcePoint" />
            <mxPoint x="440" y="220" as="targetPoint" />
            <Array as="points">
              <mxPoint x="582" y="120" />
              <mxPoint x="460" y="120" />
            </Array>
          </mxGeometry>
        </mxCell>
        <mxCell id="YcY5wflO2p1K-p8oIMmG-69" style="edgeStyle=none;rounded=0;orthogonalLoop=1;jettySize=auto;html=1;exitX=1;exitY=0.5;exitDx=0;exitDy=0;entryX=0;entryY=0.5;entryDx=0;entryDy=0;dashed=1;" edge="1" parent="1" source="YcY5wflO2p1K-p8oIMmG-64" target="YcY5wflO2p1K-p8oIMmG-5">
          <mxGeometry relative="1" as="geometry" />
        </mxCell>
        <mxCell id="YcY5wflO2p1K-p8oIMmG-64" value="Commande via bouton interface" style="ellipse;whiteSpace=wrap;html=1;" vertex="1" parent="1">
          <mxGeometry x="60" y="250" width="120" height="60" as="geometry" />
        </mxCell>
        <mxCell id="YcY5wflO2p1K-p8oIMmG-70" style="edgeStyle=none;rounded=0;orthogonalLoop=1;jettySize=auto;html=1;exitX=1;exitY=0.5;exitDx=0;exitDy=0;dashed=1;" edge="1" parent="1" source="YcY5wflO2p1K-p8oIMmG-65">
          <mxGeometry relative="1" as="geometry">
            <mxPoint x="210" y="330" as="targetPoint" />
          </mxGeometry>
        </mxCell>
        <mxCell id="YcY5wflO2p1K-p8oIMmG-65" value="Commande via Map" style="ellipse;whiteSpace=wrap;html=1;" vertex="1" parent="1">
          <mxGeometry x="80" y="360" width="110" height="60" as="geometry" />
        </mxCell>
        <mxCell id="YcY5wflO2p1K-p8oIMmG-83" value="RÃ©gulateur PID" style="ellipse;whiteSpace=wrap;html=1;" vertex="1" parent="1">
          <mxGeometry x="667" y="720" width="120" height="60" as="geometry" />
        </mxCell>
      </root>
    </mxGraphModel>
  </diagram>
</mxfile>
